<?xml version="1.0" encoding="utf-8"?>
<!-- Generator: Adobe Illustrator 18.0.0, SVG Export Plug-In . SVG Version: 6.00 Build 0)  -->
<!DOCTYPE svg PUBLIC "-//W3C//DTD SVG 1.1//EN" "http://www.w3.org/Graphics/SVG/1.1/DTD/svg11.dtd">
<svg version="1.1" id="Capa_1" xmlns="http://www.w3.org/2000/svg" xmlns:xlink="http://www.w3.org/1999/xlink" x="0px" y="0px"
	 viewBox="0 0 500 500" enable-background="new 0 0 500 500" xml:space="preserve">
<path fill="#46599A" d="M416.2,83.8L84.7,417c42.5,42.1,100.9,68,165.1,68C379.5,485,485,379.9,485,249.8
	C485,185.2,458.7,126.4,416.2,83.8z"/>
<path fill="#364980" d="M249.8,14.6c-129.7,0-235.2,105.1-235.2,235.2c0,65.5,26.7,124.7,69.6,167.2L415.8,83.8
	C373.7,41.3,314.9,14.6,249.8,14.6z"/>
<circle fill="none" stroke="#46599A" stroke-width="5" stroke-miterlimit="10" cx="249.4" cy="249.4" r="249.4"/>
<path fill="#FFFFFF" d="M270.7,251.1c0,1.3,0,2.1,0,2.9c0,43.4,0,87.2,0,130.5c0,2.9,0,2.9-2.9,2.9c-17.1,0-33.8,0-50.9,0
	c-2.5,0-2.5,0-2.5-2.5c0-43.8,0-87.6,0-131c0-0.8,0-1.7,0-2.9c-9.2,0-18.3,0-27.5,0c0-15.8,0-31.3,0-47.1c9.2,0,18.3,0,27.5,0
	c0-0.8,0-1.7,0-2.5c0-9.6,0-18.8,0-28.4c0-8.8,1.3-17.5,4.2-26.3c5.4-16.3,17.1-25.9,33.8-30c7.1-1.7,14.6-2.5,21.7-2.5
	c12.1,0,24.2,0,36.3,0c0.4,0,1.3,0,2.1,0c0,0.8,0,1.3,0,2.1c0,14.6,0,28.8,0,43.4c0,1.7-0.4,2.1-2.1,2.1c-7.9,0-15.8,0-24.2,0
	c-2.5,0-4.6,0.4-7.1,0.8c-5,1.3-7.9,4.6-8.3,10c-0.4,2.9-0.4,5.8-0.4,8.8c0,6.7,0,13.3,0,20c0,0.8,0,1.3,0,2.1c14.2,0,27.9,0,42.1,0
	c-0.4,4.2-0.8,7.9-1.3,11.7c-0.8,7.5-1.7,15-2.5,22.5c-0.4,3.8-0.8,7.5-1.3,11.7c0,1.3-0.8,1.3-2.1,1.3c-10.8,0-22.1,0-32.9,0
	C272.7,251.1,271.9,251.1,270.7,251.1z"/>
</svg>
