<?xml version="1.0" encoding="utf-8"?>
<!-- Generator: Adobe Illustrator 18.0.0, SVG Export Plug-In . SVG Version: 6.00 Build 0)  -->
<!DOCTYPE svg PUBLIC "-//W3C//DTD SVG 1.1//EN" "http://www.w3.org/Graphics/SVG/1.1/DTD/svg11.dtd">
<svg version="1.1" id="Capa_1" xmlns="http://www.w3.org/2000/svg" xmlns:xlink="http://www.w3.org/1999/xlink" x="0px" y="0px"
	 viewBox="0 0 500 500" enable-background="new 0 0 500 500" xml:space="preserve">
<path fill="#5BA7EB" d="M412.2,87.1L88.3,412.4c41.5,41,98.4,66.3,161.3,66.3c126.8,0,229.5-102.8,229.5-229.5
	C479.1,185.9,453.6,128.6,412.2,87.1z"/>
<path fill="#2F87C9" d="M249.6,19.6c-126.8,0-229.5,102.8-229.5,229.5c0,63.9,26.1,121.6,68.2,163.2L412.2,87.1
	C370.7,45.4,313.2,19.6,249.6,19.6z"/>
<circle fill="none" stroke="#5BA7EB" stroke-width="5" stroke-miterlimit="10" cx="249.1" cy="248.6" r="243.4"/>
<path fill="#FFFFFF" d="M245,208c0-6.7-0.4-12.6,0.1-18.5c2-24.8,22.5-45.9,47.2-48.8c17.6-2.1,33,2.6,46.1,14.7
	c1.2,1.1,3.8,1.8,5.3,1.4c8.3-2.7,16.6-5.7,24.8-8.7c1.9-0.7,3.6-1.8,5.8-2.3c-1.3,5.9-4,11.1-7.9,15.5c-3.9,4.5-8.4,8.4-13,13
	c10-0.7,19-3.9,28.7-6.6c-2.4,3.1-4.6,6.4-7.3,9.2c-5.1,5.2-10.3,10.2-15.8,15c-2.5,2.1-3.5,4.2-3.4,7.5c0.2,34-9.3,65.1-28.6,93
	c-25.7,37.3-61,59.2-105.9,65.2c-36.4,4.9-70.7-1.2-102.7-19.8c-1.2-0.7-2.3-1.5-3.5-2.6c14,0.8,27.8-0.3,41.4-4
	c13.6-3.8,26-10.1,37.4-19.1c-24.1-3-41-15-50.2-37.8c4.5,0,8.3,0.2,12.1-0.1c3.6-0.2,7.1-0.9,10.7-2c-15.9-4.8-28.1-13.9-36-28.4
	c-4.3-7.9-6.5-16.5-6.4-26.2c7.7,3.5,15,6.4,23.9,6.4c-24-20.6-29.4-44.6-16.5-73.7C161.7,185.4,199.2,205,245,208z"/>
</svg>
